# xmcd
#
# Track frame offsets:
# 150
# 13967
# 30375
# 45870
# 61895
# 78547
# 93815
# 107470
# 122622
# 138972
#
# Disc length: 2023 seconds
#
#
# Revision: 1
# Processed by: cddbd v1.5.1PL0 Copyright (c) Steve Scherf et al.
# Submitted via: FreeRIP 2.942 
#
DISCID=6d07e50a
DTITLE=Ray Conniff - Entre Amigos
DYEAR=1900
DGENRE=
TTITLE0=Lady Laura
TTITLE1=Por Ella (Por Ela)
TTITLE2=Me Olvide De Vivir (Me Esqueci De Viver)
TTITLE3=Manuela
TTITLE4=Detalhes
TTITLE5=De Nina A Mujer
TTITLE6=Amante Ah Moda Antiga
TTITLE7=A Guerra Dos Meninos
TTITLE8=Cafeh Da Manha
TTITLE9=Abrazame
EXTD=
EXTT0=
EXTT1=
EXTT2=
EXTT3=
EXTT4=
EXTT5=
EXTT6=
EXTT7=
EXTT8=
EXTT9=
PLAYORDER=
